<svg id="visual" viewBox="0 0 900 600" width="900" height="600" xmlns="http://www.w3.org/2000/svg" xmlns:xlink="http://www.w3.org/1999/xlink" version="1.1"><path d="M13 0L18.8 16.7C24.7 33.3 36.3 66.7 41.7 100C47 133.3 46 166.7 38.3 200C30.7 233.3 16.3 266.7 14 300C11.7 333.3 21.3 366.7 30.8 400C40.3 433.3 49.7 466.7 53.5 500C57.3 533.3 55.7 566.7 54.8 583.3L54 600L0 600L0 583.3C0 566.7 0 533.3 0 500C0 466.7 0 433.3 0 400C0 366.7 0 333.3 0 300C0 266.7 0 233.3 0 200C0 166.7 0 133.3 0 100C0 66.7 0 33.3 0 16.7L0 0Z" fill="#18381C" stroke-linecap="round" stroke-linejoin="miter"></path></svg>