<?xml version="1.0"?>
<svg xmlns="http://www.w3.org/2000/svg" viewBox="0 0 512 512" width="512" height="512"><g id="Solid"><path d="M202.928,324c-16.83-7.537-41.087-12-66.928-12s-50.1,4.462-66.927,12c16.832,7.538,41.087,12,66.927,12S186.1,331.537,202.928,324Z"/><path d="M56,480H216a24.042,24.042,0,0,0,22.629-16H33.371A24.042,24.042,0,0,0,56,480Z"/><path d="M283.25,400.58a48.732,48.732,0,0,0,11.226-20.771c2.154-8.5,1.566-16.645-.708-25.042a47.79,47.79,0,0,0-5.73-13.072,44.363,44.363,0,0,0-6.1-7.647,48.174,48.174,0,0,0-9.21-7.194,46.79,46.79,0,0,0-10.378-4.654c-.107-.033-.213-.069-.318-.107A47.788,47.788,0,0,0,248,320h-8.41c-.008.143-.014.276-.021.421-.265,5.186-.678,10.4-1.206,15.579H248a32,32,0,1,1,0,64H225.085q-2.561,8.063-5.557,16H248A48.774,48.774,0,0,0,283.25,400.58Z"/><path d="M259.32,379.307A16,16,0,0,0,248,352H236.328a316.479,316.479,0,0,1-6.454,31.447c-.048.185-.1.368-.146.553H248A15.934,15.934,0,0,0,259.32,379.307Z"/><path d="M264.6,73.1A79.114,79.114,0,0,0,214.264,104H345.736A79.114,79.114,0,0,0,295.4,73.1a8,8,0,0,1-4.251-13.627,16,16,0,1,0-22.292,0A8,8,0,0,1,264.6,73.1Z"/><path d="M172.407,152H387.43a136.409,136.409,0,0,0-9.675-12.569A147.108,147.108,0,0,0,357.28,120H202.72A146.231,146.231,0,0,0,172.407,152Z"/><path d="M84.718,448H187.283A299.482,299.482,0,0,0,200.348,420.9a298.378,298.378,0,0,0,11.162-31.169c1-3.332,1.965-6.789,2.877-10.3a299.769,299.769,0,0,0,7.07-36.458c.512-3.885.948-7.807,1.306-11.74C203.909,344.249,171.63,352,136,352c-35.614,0-67.88-7.744-86.741-20.755A301.515,301.515,0,0,0,84.718,448Z"/><path d="M56,144h9.68a23.972,23.972,0,0,1,23.851,21.347l7.3,65.72a63.885,63.885,0,0,0,9.3,26.788A234.478,234.478,0,0,1,136,256q2.949,0,5.848.069A130.612,130.612,0,0,1,135.57,216a120.588,120.588,0,0,1,2.015-21.832A39.976,39.976,0,0,1,129.5,179.5l-6.9-22.992A39.748,39.748,0,0,0,84.29,128H56Z"/><path d="M48,304c0,3.785,2.453,7.277,5.4,10.106C72.64,302.7,102.873,296,136,296s63.359,6.7,82.6,18.106c2.947-2.83,5.4-6.321,5.4-10.106,0-15.105-37.634-32-88-32S48,288.9,48,304Z"/><path d="M424,128a55.358,55.358,0,0,0-28.552,7.808,148.575,148.575,0,0,1,9.12,13.238A39.987,39.987,0,0,1,464,184v48a39.924,39.924,0,0,1-51.716,38.219,137.216,137.216,0,0,1-7.538,14.348A55.971,55.971,0,0,0,480,232V184A56.064,56.064,0,0,0,424,128Z"/><path d="M381.642,349.4a45.51,45.51,0,0,0-13.6,34.553,46.144,46.144,0,0,0,47.914-47.914A45.482,45.482,0,0,0,381.642,349.4Z"/><path d="M424,256a24.027,24.027,0,0,0,24-24V184a23.951,23.951,0,0,0-35.873-20.822A124.566,124.566,0,0,1,424,216a130.634,130.634,0,0,1-6.01,39.226A23.889,23.889,0,0,0,424,256Z"/><path d="M351.957,383.957a46.144,46.144,0,0,0-47.914-47.914,46.144,46.144,0,0,0,47.914,47.914Z"/><path d="M396.711,168H163.029a113.148,113.148,0,0,0-8.967,25.368A104.785,104.785,0,0,0,151.57,216a114.883,114.883,0,0,0,7.591,41.1C206.554,261.7,240,280.334,240,304h8a63.781,63.781,0,0,1,19.07,2.9v0c.1.031.2.064.3.1A62.971,62.971,0,0,1,278.947,312H359.3a133.621,133.621,0,0,0,27.144-28.577,121.487,121.487,0,0,0,14.067-26.559A114.814,114.814,0,0,0,408,216,109.117,109.117,0,0,0,396.711,168Zm-225.6,74.119A98.656,98.656,0,0,1,167.57,216h16a82.645,82.645,0,0,0,2.965,21.881Zm13.917-40.531-15.682-3.176a94.775,94.775,0,0,1,5.375-17.479l14.777,6.134A78.738,78.738,0,0,0,185.023,201.588Z"/><path d="M431.838,416.162A59.682,59.682,0,0,0,368.115,472H368V400H352v72h-.114a59.682,59.682,0,0,0-63.724-55.838A59.666,59.666,0,0,0,346.4,479.976V480h27.123v-.023a59.665,59.665,0,0,0,58.315-63.815Z"/></g></svg>
